<svg xmlns="http://www.w3.org/2000/svg" width="71.946" height="76.689" viewBox="0 0 71.946 76.689">
  <g id="Group_98" data-name="Group 98" transform="translate(-924 -1179.311)">
    <path id="Path_23" data-name="Path 23" d="M1666.51,168.147c-5.145-.009-10.289-.05-15.431.041a3.471,3.471,0,0,0-2.307,1.042q-8.405,9.687-16.732,19.442-8.341-9.741-16.73-19.442a3.477,3.477,0,0,0-2.309-1.042c-5.142-.092-10.287-.05-15.43-.041-.468,0-.936.089-1.418.138v58.068h6.233v-51.9c2.549,0,4.925.088,7.291-.034a3.491,3.491,0,0,1,3.114,1.444q7.536,8.84,15.113,17.644l-1.877,2.191c-.31.362-.73.807-.74,1.222-.053,2.364-.042,4.743-.038,7.332q-5.192-6.061-10.389-12.116c-.929-1.085-3.891-4.908-5.157-6.322,0,3.313-.017,6.919.049,9.72.01.486,2.319,3.011,2.655,3.4q7.74,9.053,15.521,18.073c-.582.683-1.166,1.362-1.748,2.046a3.2,3.2,0,0,1-2.817,1.273c-.19-.008-.38-.008-.57-.014h-13.052V226.5c5.96,0,11.711.026,17.462-.041a2.58,2.58,0,0,0,1.624-.928c1.074-1.243,2.139-2.5,3.212-3.741,1.074,1.245,2.139,2.5,3.213,3.741a2.574,2.574,0,0,0,1.624.928c5.75.067,11.5.041,17.462.041v-6.193h-13.053c-.189.006-.38.006-.57.014a3.2,3.2,0,0,1-2.815-1.273c-.582-.684-1.166-1.364-1.749-2.046q7.769-9.031,15.522-18.073c.336-.393,2.711-2.985,2.722-3.471.064-2.8.019-5.592.019-8.9-1.267,1.415-4.265,4.489-5.2,5.574q-5.195,6.057-10.389,12.116c.006-2.589.016-4.968-.036-7.332-.009-.415-.43-.86-.741-1.222q-.936-1.1-1.876-2.191,7.57-8.81,15.113-17.644a3.491,3.491,0,0,1,3.114-1.444c2.365.122,4.741.034,7.289.034v51.9h6.234V168.285C1667.446,168.236,1666.978,168.148,1666.51,168.147ZM1637.3,204.436c.209.244.437.483.712.768q-2.988,3.49-5.969,6.988-2.984-3.494-5.969-6.988c.275-.284.5-.524.714-.768l5.256-6.118Q1634.669,201.376,1637.3,204.436Z" transform="translate(-672.153 1020.389)" fill="#b88c47"/>
    <rect id="Rectangle_6" data-name="Rectangle 6" width="71.946" height="6.511" transform="translate(924 1179.311)" fill="#002a41"/>
    <rect id="Rectangle_7" data-name="Rectangle 7" width="71.946" height="6.511" transform="translate(924 1249.489)" fill="#002a41"/>
  </g>
</svg>
