<svg xmlns="http://www.w3.org/2000/svg" width="282.4" height="76.689" viewBox="0 0 282.4 76.689">
  <g id="Group_5" data-name="Group 5" transform="translate(-1596.02 -161.006)">
    <g id="Group_4" data-name="Group 4" transform="translate(1682.405 194.032)">
      <g id="Group_3" data-name="Group 3">
        <path id="Path_1" data-name="Path 1" d="M1744.713,186.941v3.714h5.221v14.224h0a1.852,1.852,0,0,0,1.726,1.843h.264c.06,0,.114-.019.171-.028-.042.006-.084.019-.129.025v0h2.638V190.655h5.208v-3.714Z" transform="translate(-1638.895 -186.443)" fill="#fff"/>
        <path id="Path_2" data-name="Path 2" d="M1769.675,198.242q4.14-1.427,4.14-5.423,0-5.879-8.666-5.879h-6.216v19.794h2.731a1.856,1.856,0,0,0,1.856-1.856v-5.854q.849,0,1.576-.027l4.432,6.834.088.136a1.851,1.851,0,0,0,1.5.768h4.037Zm-1.444-4.109a4.05,4.05,0,0,1-2.166.579h-2.544v-4.736h2.382q3.459,0,3.459,2.2A2.191,2.191,0,0,1,1768.231,194.133Z" transform="translate(-1634.735 -186.443)" fill="#fff"/>
        <g id="Group_1" data-name="Group 1" transform="translate(74.266 0.498)">
          <path id="Path_3" data-name="Path 3" d="M1734.271,186.941h-4.656l-9.311,19.794h3.548a1.855,1.855,0,0,0,1.729-1.193h.017l1.437-3.287h9.856l1.4,3.335.009.022a1.857,1.857,0,0,0,1.706,1.123h3.547Zm-5.517,11.506,3.217-6.809,3.208,6.809Z" transform="translate(-1720.304 -186.941)" fill="#fff"/>
        </g>
        <path id="Path_4" data-name="Path 4" d="M1699.647,190.628v-3.687H1686.46v17.938a1.858,1.858,0,0,0,1.858,1.856h11.33v-3.7h-8.626v-4.792h6.608V194.61h-6.608v-3.983Z" transform="translate(-1655.941 -186.443)" fill="#fff"/>
        <path id="Path_5" data-name="Path 5" d="M1721.7,199.295a12.841,12.841,0,0,0,.094-2.191l-.027-.832h-.067v-.04h-3.808v.04h-7.67v3.539h7.549a10.745,10.745,0,0,1-1.762,2.731,6.6,6.6,0,0,1-4,1.2,7.508,7.508,0,0,1-5.424-1.776,6.33,6.33,0,0,1-2.421-5.072,5.957,5.957,0,0,1,2.463-4.993,8.24,8.24,0,0,1,5.126-1.655,9.1,9.1,0,0,1,6.486,2.664l2.933-2.624a12.973,12.973,0,0,0-9.446-3.727,11.918,11.918,0,0,0-8.867,3.458,9.4,9.4,0,0,0-2.88,6.835,9.86,9.86,0,0,0,1.574,5.342q3.244,5.156,10.294,5.154a11.706,11.706,0,0,0,6.042-1.48v1.225h1.957a1.857,1.857,0,0,0,1.851-1.847v-5.949Z" transform="translate(-1651.984 -186.556)" fill="#fff"/>
        <path id="Path_6" data-name="Path 6" d="M1682.786,186.941l-7.387,14.492-7.288-14.492h-5.261v19.794h2.384a1.855,1.855,0,0,0,1.855-1.832l0-.025,0-.026V194.476l5.434,11.124h.021a1.858,1.858,0,0,0,1.711,1.135h2.244a1.859,1.859,0,0,0,1.713-1.135h.017l5.574-11.54v10.716h.012c0,.035-.01.067-.01.1a1.857,1.857,0,0,0,1.857,1.856h2.38V186.941Z" transform="translate(-1662.85 -186.443)" fill="#fff"/>
        <g id="Group_2" data-name="Group 2" transform="translate(143.548)">
          <path id="Path_7" data-name="Path 7" d="M1801.789,196.46a30.06,30.06,0,0,0-4.6-2.059q-2.472-.956-2.458-1.87a2.4,2.4,0,0,1,.752-1.763,1.841,1.841,0,0,1,1.29-.6,4.974,4.974,0,0,1,3.641,2.045l3.4-2.462a10.1,10.1,0,0,0-6.984-3.189,6.709,6.709,0,0,0-4.414,1.762,5.587,5.587,0,0,0-2.219,4.32,4.689,4.689,0,0,0,2.435,4.131,40.187,40.187,0,0,0,4.589,1.992q2.476.968,2.5,2.058a2.961,2.961,0,0,1-2.8,2.947q-2.261,0-4-2.624l-3.862,1.912a8.536,8.536,0,0,0,7.765,4.291,7.594,7.594,0,0,0,4.979-1.843,6.144,6.144,0,0,0,2.422-4.845A4.82,4.82,0,0,0,1801.789,196.46Z" transform="translate(-1769.464 -186.556)" fill="#fff"/>
          <path id="Path_8" data-name="Path 8" d="M1802.811,186.941v3.714h5.222v14.224h0a1.852,1.852,0,0,0,1.725,1.843h.265c.058,0,.114-.019.17-.028-.044.006-.085.019-.129.025v0h2.638V190.655h5.208v-3.714Z" transform="translate(-1765.443 -186.443)" fill="#fff"/>
          <path id="Path_9" data-name="Path 9" d="M1788.665,186.947a1.352,1.352,0,0,0-.539,0h-2.355v11.8q0,4.589-3.781,4.589-3.606,0-3.606-4.52V186.947H1773.9v11.8q0,4.333,1.912,6.379,1.978,2.113,6.283,2.112,4.252,0,6.245-2.139,1.91-2.071,1.911-6.352v-9.971A1.851,1.851,0,0,0,1788.665,186.947Z" transform="translate(-1773.902 -186.449)" fill="#fff"/>
        </g>
      </g>
    </g>
    <path id="Path_10" data-name="Path 10" d="M1666.51,168.147c-5.145-.009-10.289-.05-15.431.041a3.471,3.471,0,0,0-2.307,1.042q-8.405,9.687-16.732,19.442-8.341-9.741-16.73-19.442a3.477,3.477,0,0,0-2.309-1.042c-5.142-.092-10.287-.05-15.43-.041-.468,0-.936.089-1.418.138v58.068h6.233v-51.9c2.549,0,4.925.088,7.291-.034a3.491,3.491,0,0,1,3.114,1.444q7.536,8.84,15.113,17.644l-1.877,2.191c-.31.362-.73.807-.74,1.222-.053,2.364-.042,4.743-.038,7.332q-5.192-6.061-10.389-12.116c-.929-1.085-3.891-4.908-5.157-6.322,0,3.313-.017,6.919.049,9.72.01.486,2.319,3.011,2.655,3.4q7.74,9.053,15.521,18.073c-.582.683-1.166,1.362-1.748,2.046a3.2,3.2,0,0,1-2.817,1.273c-.19-.008-.38-.008-.57-.014h-13.052V226.5c5.96,0,11.711.026,17.462-.041a2.58,2.58,0,0,0,1.624-.928c1.074-1.243,2.139-2.5,3.212-3.741,1.074,1.245,2.139,2.5,3.213,3.741a2.574,2.574,0,0,0,1.624.928c5.75.067,11.5.041,17.462.041v-6.193h-13.053c-.189.006-.38.006-.57.014a3.2,3.2,0,0,1-2.815-1.273c-.582-.684-1.166-1.364-1.749-2.046q7.769-9.031,15.522-18.073c.336-.393,2.711-2.985,2.722-3.471.064-2.8.019-5.592.019-8.9-1.267,1.415-4.265,4.489-5.2,5.574q-5.195,6.057-10.389,12.116c.006-2.589.016-4.968-.036-7.332-.009-.415-.43-.86-.741-1.222q-.936-1.1-1.876-2.191,7.57-8.81,15.113-17.644a3.491,3.491,0,0,1,3.114-1.444c2.365.122,4.741.034,7.289.034v51.9h6.234V168.285C1667.446,168.236,1666.978,168.148,1666.51,168.147ZM1637.3,204.436c.209.244.437.483.712.768q-2.988,3.49-5.969,6.988-2.984-3.494-5.969-6.988c.275-.284.5-.524.714-.768l5.256-6.118Q1634.669,201.376,1637.3,204.436Z" transform="translate(0.039 2.084)" fill="#b88c47"/>
    <rect id="Rectangle_2" data-name="Rectangle 2" width="71.946" height="6.511" transform="translate(1596.02 161.006)" fill="#fff"/>
    <rect id="Rectangle_3" data-name="Rectangle 3" width="71.946" height="6.511" transform="translate(1596.02 231.184)" fill="#fff"/>
  </g>
</svg>
